<svg fill="#9EBBBD" width="17" height="17" viewBox="0 0 24.00 24.00" id="rupiah-2" data-name="Flat Color" xmlns="http://www.w3.org/2000/svg" class="icon flat-color" stroke="#ffffff" stroke-width="0.264"><g id="SVGRepo_bgCarrier" stroke-width="0"></g><g id="SVGRepo_tracerCarrier" stroke-linecap="round" stroke-linejoin="round"></g><g id="SVGRepo_iconCarrier"><path id="primary" d="M18.5,10H16a1,1,0,0,0-1,1v9a1,1,0,0,0,2,0V17h1.5a3.5,3.5,0,0,0,0-7Zm0,5H17V12h1.5a1.5,1.5,0,0,1,0,3ZM13,8A5,5,0,0,0,8,3H3A1,1,0,0,0,2,4V18a1,1,0,0,0,2,0V13H7.38l2.73,5.45A1,1,0,0,0,11,19a.93.93,0,0,0,.45-.11,1,1,0,0,0,.44-1.34L9.5,12.77A5,5,0,0,0,13,8ZM8,11H4V5H8a3,3,0,0,1,0,6Z" style="fill: #9EBBBD;"></path></g></svg>